<svg xmlns="http://www.w3.org/2000/svg" xmlns:xlink="http://www.w3.org/1999/xlink" style="margin:auto;background:#fff;display:block;" width="200px" height="200px" viewBox="0 0 100 100" preserveAspectRatio="xMidYMid">
<g transform="translate(50 50)"> <g transform="translate(-17 -17) scale(0.5)"> <g>
<animateTransform attributeName="transform" type="rotate" values="0;36" keyTimes="0;1" dur="0.27472527472527475s" begin="0s" repeatCount="indefinite"></animateTransform><path d="M40.2119385257662 -8 L51.2119385257662 -8 L51.2119385257662 8 L40.2119385257662 8 A41 41 0 0 1 37.234423662445316 17.163848476537325 L37.234423662445316 17.163848476537325 L46.13361060056974 23.62948625175453 L36.729046563890165 36.57375816175369 L27.82985962576574 30.108120386536484 A41 41 0 0 1 20.034624511583655 35.771690212790496 L20.034624511583655 35.771690212790496 L23.433811449708077 46.233311892037186 L8.216907188985621 51.177583802036345 L4.817720250861199 40.715962122789655 A41 41 0 0 1 -4.817720250861194 40.715962122789655 L-4.817720250861194 40.715962122789655 L-8.216907188985616 51.177583802036345 L-23.433811449708077 46.233311892037186 L-20.034624511583655 35.771690212790496 A41 41 0 0 1 -27.82985962576574 30.108120386536488 L-27.82985962576574 30.108120386536488 L-36.72904656389016 36.573758161753695 L-46.13361060056973 23.62948625175454 L-37.23442366244531 17.163848476537332 A41 41 0 0 1 -40.2119385257662 8.000000000000005 L-40.2119385257662 8.000000000000005 L-51.2119385257662 8.000000000000007 L-51.2119385257662 -7.999999999999994 L-40.2119385257662 -7.999999999999996 A41 41 0 0 1 -37.234423662445316 -17.16384847653732 L-37.234423662445316 -17.16384847653732 L-46.13361060056974 -23.629486251754525 L-36.729046563890165 -36.57375816175369 L-27.829859625765742 -30.10812038653648 A41 41 0 0 1 -20.03462451158366 -35.77169021279049 L-20.03462451158366 -35.77169021279049 L-23.433811449708084 -46.23331189203718 L-8.216907188985626 -51.177583802036345 L-4.817720250861203 -40.715962122789655 A41 41 0 0 1 4.817720250861189 -40.715962122789655 L4.817720250861189 -40.715962122789655 L8.216907188985608 -51.177583802036345 L23.433811449708067 -46.23331189203719 L20.034624511583647 -35.7716902127905 A41 41 0 0 1 27.829859625765735 -30.108120386536495 L27.829859625765735 -30.108120386536495 L36.72904656389016 -36.5737581617537 L46.13361060056973 -23.629486251754543 L37.23442366244531 -17.163848476537336 A41 41 0 0 1 40.2119385257662 -8.00000000000001 M0 -13A13 13 0 1 0 0 13 A13 13 0 1 0 0 -13" fill="#93dbe9"></path></g></g> <g transform="translate(0 22) scale(0.4)"> <g>
<animateTransform attributeName="transform" type="rotate" values="36;0" keyTimes="0;1" dur="0.27472527472527475s" begin="-0.13736263736263737s" repeatCount="indefinite"></animateTransform><path d="M40.2119385257662 -8 L51.2119385257662 -8 L51.2119385257662 8 L40.2119385257662 8 A41 41 0 0 1 37.234423662445316 17.163848476537325 L37.234423662445316 17.163848476537325 L46.13361060056974 23.62948625175453 L36.729046563890165 36.57375816175369 L27.82985962576574 30.108120386536484 A41 41 0 0 1 20.034624511583655 35.771690212790496 L20.034624511583655 35.771690212790496 L23.433811449708077 46.233311892037186 L8.216907188985621 51.177583802036345 L4.817720250861199 40.715962122789655 A41 41 0 0 1 -4.817720250861194 40.715962122789655 L-4.817720250861194 40.715962122789655 L-8.216907188985616 51.177583802036345 L-23.433811449708077 46.233311892037186 L-20.034624511583655 35.771690212790496 A41 41 0 0 1 -27.82985962576574 30.108120386536488 L-27.82985962576574 30.108120386536488 L-36.72904656389016 36.573758161753695 L-46.13361060056973 23.62948625175454 L-37.23442366244531 17.163848476537332 A41 41 0 0 1 -40.2119385257662 8.000000000000005 L-40.2119385257662 8.000000000000005 L-51.2119385257662 8.000000000000007 L-51.2119385257662 -7.999999999999994 L-40.2119385257662 -7.999999999999996 A41 41 0 0 1 -37.234423662445316 -17.16384847653732 L-37.234423662445316 -17.16384847653732 L-46.13361060056974 -23.629486251754525 L-36.729046563890165 -36.57375816175369 L-27.829859625765742 -30.10812038653648 A41 41 0 0 1 -20.03462451158366 -35.77169021279049 L-20.03462451158366 -35.77169021279049 L-23.433811449708084 -46.23331189203718 L-8.216907188985626 -51.177583802036345 L-4.817720250861203 -40.715962122789655 A41 41 0 0 1 4.817720250861189 -40.715962122789655 L4.817720250861189 -40.715962122789655 L8.216907188985608 -51.177583802036345 L23.433811449708067 -46.23331189203719 L20.034624511583647 -35.7716902127905 A41 41 0 0 1 27.829859625765735 -30.108120386536495 L27.829859625765735 -30.108120386536495 L36.72904656389016 -36.5737581617537 L46.13361060056973 -23.629486251754543 L37.23442366244531 -17.163848476537336 A41 41 0 0 1 40.2119385257662 -8.00000000000001 M0 -13A13 13 0 1 0 0 13 A13 13 0 1 0 0 -13" fill="#689cc5"></path></g></g> <g transform="translate(28 4) scale(0.3)"> <g>
<animateTransform attributeName="transform" type="rotate" values="0;36" keyTimes="0;1" dur="0.27472527472527475s" begin="-0.13736263736263737s" repeatCount="indefinite"></animateTransform><path d="M40.2119385257662 -8 L51.2119385257662 -8 L51.2119385257662 8 L40.2119385257662 8 A41 41 0 0 1 37.234423662445316 17.163848476537325 L37.234423662445316 17.163848476537325 L46.13361060056974 23.62948625175453 L36.729046563890165 36.57375816175369 L27.82985962576574 30.108120386536484 A41 41 0 0 1 20.034624511583655 35.771690212790496 L20.034624511583655 35.771690212790496 L23.433811449708077 46.233311892037186 L8.216907188985621 51.177583802036345 L4.817720250861199 40.715962122789655 A41 41 0 0 1 -4.817720250861194 40.715962122789655 L-4.817720250861194 40.715962122789655 L-8.216907188985616 51.177583802036345 L-23.433811449708077 46.233311892037186 L-20.034624511583655 35.771690212790496 A41 41 0 0 1 -27.82985962576574 30.108120386536488 L-27.82985962576574 30.108120386536488 L-36.72904656389016 36.573758161753695 L-46.13361060056973 23.62948625175454 L-37.23442366244531 17.163848476537332 A41 41 0 0 1 -40.2119385257662 8.000000000000005 L-40.2119385257662 8.000000000000005 L-51.2119385257662 8.000000000000007 L-51.2119385257662 -7.999999999999994 L-40.2119385257662 -7.999999999999996 A41 41 0 0 1 -37.234423662445316 -17.16384847653732 L-37.234423662445316 -17.16384847653732 L-46.13361060056974 -23.629486251754525 L-36.729046563890165 -36.57375816175369 L-27.829859625765742 -30.10812038653648 A41 41 0 0 1 -20.03462451158366 -35.77169021279049 L-20.03462451158366 -35.77169021279049 L-23.433811449708084 -46.23331189203718 L-8.216907188985626 -51.177583802036345 L-4.817720250861203 -40.715962122789655 A41 41 0 0 1 4.817720250861189 -40.715962122789655 L4.817720250861189 -40.715962122789655 L8.216907188985608 -51.177583802036345 L23.433811449708067 -46.23331189203719 L20.034624511583647 -35.7716902127905 A41 41 0 0 1 27.829859625765735 -30.108120386536495 L27.829859625765735 -30.108120386536495 L36.72904656389016 -36.5737581617537 L46.13361060056973 -23.629486251754543 L37.23442366244531 -17.163848476537336 A41 41 0 0 1 40.2119385257662 -8.00000000000001 M0 -13A13 13 0 1 0 0 13 A13 13 0 1 0 0 -13" fill="#5e6fa3"></path></g></g></g>
</svg>