<svg xmlns="http://www.w3.org/2000/svg" width="119.665" height="30.501" viewBox="0 0 119.665 30.501"><defs><style>.a{fill:#ff433f;}.b{fill:#fff;}</style></defs><path class="a" d="M1227.043,472.921a.445.445,0,0,0-.335-.154h-5.389a.462.462,0,0,0-.335.77l8.849,10.027a.469.469,0,0,1,.034.574l-8.74,12.678a.462.462,0,0,0,.369.727h5.408a.448.448,0,0,0,.37-.2l9.026-13.315a.47.47,0,0,0-.034-.57l-9.22-10.538" transform="translate(-1220.866 -467.755)"/><path class="b" d="M1333.973,484.5h3.178v20.434h-6.13V488.848Z" transform="translate(-1289.603 -475.076)"/><path class="b" d="M1460.42,484.5h3.178v20.434h-6.13V488.848Z" transform="translate(-1368.505 -475.076)"/><path class="b" d="M1481.515,493.955a10.83,10.83,0,1,1,10.83,10.789A10.71,10.71,0,0,1,1481.515,493.955Zm15.53,0a4.7,4.7,0,1,0-4.7,4.823A4.583,4.583,0,0,0,1497.045,493.955Z" transform="translate(-1383.51 -474.244)"/><path class="b" d="M1258.831,476.7l4.311,4.96a.778.778,0,0,1,.191.518h0a.776.776,0,0,1-.134.428l-3.738,5.524v.62c0,5.722,2.33,8.133,10.34,7.316v-5.558c-2.7.164-4.209,0-4.209-1.757v-7.234h4.209v-5.885h-4.209v-5.457h-2.346Z" transform="translate(-1244.556 -466.137)"/><path class="b" d="M1377.055,483.738v20.434H1372.6l-1.679-1.921a7.676,7.676,0,0,1-6.089,2.493c-5.354,0-9.768-4.7-9.768-10.789s4.414-10.79,9.768-10.79a7.675,7.675,0,0,1,6.089,2.493l1.3-1.921Zm-6.13,10.217a4.865,4.865,0,1,0-4.863,4.986A4.667,4.667,0,0,0,1370.925,493.955Z" transform="translate(-1304.608 -474.243)"/><path class="b" d="M1302.644,484.688l-1.441,1.286-1.284-1.286h-4.645v20.434h6.13V490.573h2.583l3.3-4.875v-1.01Z" transform="translate(-1267.297 -475.193)"/><path class="b" d="M1429.091,484.688l-1.441,1.286-1.284-1.286h-4.645v20.434h6.13V490.573h2.583l3.3-4.875v-1.01Z" transform="translate(-1346.199 -475.193)"/><path class="b" d="M1329.391,463.115a3.678,3.678,0,1,1,3.678,3.678A3.715,3.715,0,0,1,1329.391,463.115Z" transform="translate(-1288.585 -459.437)"/><path class="b" d="M1455.838,463.115a3.678,3.678,0,1,1,3.678,3.678A3.716,3.716,0,0,1,1455.838,463.115Z" transform="translate(-1367.488 -459.437)"/></svg>